<svg id="Capa_1" data-name="Capa 1" xmlns="http://www.w3.org/2000/svg" viewBox="0 0 1080 402.03"><title>Firma</title><path d="M240.27,277.82a61.58,61.58,0,0,1-9.72-23.65,174,174,0,0,1-2.63-31.67,304.53,304.53,0,0,1,2-34.29c-8.2.79-19.43,3.28-33.5,7.09q-24,54.19-42.82,74.9l-.51.13c-.6,0-1-.53-1.11-1.45,0-.26,0-.39.1-.52l.3-.4c11.95-13,25.72-37,41.3-71.87-11.74,3.28-23.28,9.46-34.72,18.66a2.24,2.24,0,0,1-1.72.79,2.66,2.66,0,0,1-1.52-.79,2.94,2.94,0,0,1-.91-2.5,4.36,4.36,0,0,1,2.13-3.81A118.4,118.4,0,0,1,195.53,192c.2-.4.4-.79.5-1.05l.41-.53a4.25,4.25,0,0,1,.1-.53,11.38,11.38,0,0,1,.81-1.83c5.67-12.62,11.13-24.84,16.5-36.79,10.73-24.58,21.05-47.18,31.08-68.07l1-1c1.42,0,2.12.66,2.12,2-1.51,12.62-3.34,26-5.46,40.08q-4.71,30.35-8,60.44A144.08,144.08,0,0,0,256,179.4h.81l.2,1.32a2,2,0,0,1-.71,1.44,150.37,150.37,0,0,1-22.06,5.13c-1,10.77-1.52,21.28-1.52,31.66,0,5.65.3,13.67.91,24.18s3.44,21.55,8.5,33.37l.2.4a2.54,2.54,0,0,1-.1.92.56.56,0,0,1-.4.39c-.1.13-.1.13-.2.13h-.31a1.17,1.17,0,0,1-1-.52M211.93,188.6c3.94-.66,8.2-1.44,12.65-2.23,1.82-.4,3.64-.66,5.57-.92,2.43-21.68,5.36-42.44,8.8-62.41,2.33-13.67,4.05-24.58,5.06-32.59-8.09,17.08-17,36.4-26.52,58.08q-8.81,20.1-18.42,41l-.81,1.84q7.74-1.77,13.67-2.76"/><path d="M260,222.76a24.68,24.68,0,0,1,2.33-9.59,17.15,17.15,0,0,0,1.62-6.31,7.33,7.33,0,0,0-1.42-3.81,14.78,14.78,0,0,1-2.33-7.62,9.08,9.08,0,0,1,3-7c1.92-1.84,3.85-2.89,5.57-3a2.22,2.22,0,0,1,1.72.79,3.75,3.75,0,0,1,.61,2,5.79,5.79,0,0,1-1,3,31.49,31.49,0,0,1-6,7.22,17.89,17.89,0,0,0,2,3.68,10.42,10.42,0,0,1,2.12,5.65,16.4,16.4,0,0,1-1.62,6.57,28.13,28.13,0,0,0-1.92,8.94q0,3.35,3,3.55c12.24,0,29.86-9.73,52.84-29l.4-.13c.81,0,1.22.52,1.22,1.7l-.51.79c-23,19.58-40.9,29.3-53.95,29.3-5.07,0-7.7-2.23-7.8-6.7m5.37-32.19a7.92,7.92,0,0,0-1.93,4.86v.27a27.75,27.75,0,0,0,3.65-4.08c1.21-1.71,1.82-2.76,1.82-3.41-1.11,0-2.23.78-3.54,2.36"/><path d="M320.38,234.19c-1.51-3.81-2.22-8.67-2.22-14.71,0-3,.3-7.62.91-13.54s1.82-13.4,3.54-22.33c1.72-8.54,3.34-15.9,4.86-22.34,1.11-4.86,2-8.8,2.73-12a30.47,30.47,0,0,0-3.74-.13c-8.1,0-16.81,2.1-26.22,6.31a2,2,0,0,1-1.52-.53c-.4-.26-.61-.92-.61-2.1a2.38,2.38,0,0,1,1.32-2.5,67.26,67.26,0,0,1,23.28-4.2,56.37,56.37,0,0,1,8.2.53c2.84-10.91,5.27-20,7.39-26.94a2.87,2.87,0,0,1,2.94-2.1c1.52,0,2.33,1,2.33,3-2.54,7.75-5.07,16.56-7.8,26.54,3.54.66,6.88,1.45,10.22,2.37,2.74.65,5.37,1.31,8,1.84a35.18,35.18,0,0,0,8.4.92,48.94,48.94,0,0,0,9.62-.92c.81,0,1.21.52,1.21,1.44v.4a1.8,1.8,0,0,1-.4.52.75.75,0,0,1-.61.26,51.47,51.47,0,0,1-10,.92,36.08,36.08,0,0,1-8.5-.92c-2.74-.52-5.57-1.18-8.4-1.84-3.34-.92-6.79-1.57-10.33-2.23-3.34,12.48-6.17,25.49-8.5,38.76s-3.54,24.7-3.54,34.16,1.82,14.46,5.46,14.46q6.53,0,13.67-4.73a80.53,80.53,0,0,0,14.27-12.35,181.69,181.69,0,0,0,13.36-16.17,69,69,0,0,0,4.25-6l.61-.53c.91,0,1.42.4,1.42,1.32v.39a2.67,2.67,0,0,1-.2.66l-.21.13c-.71,1.05-2.53,3.68-5.67,7.75s-6.88,8.68-11.43,13.54a103.56,103.56,0,0,1-14.78,13c-5.27,3.81-10.33,5.64-15.19,5.64-4,0-6.68-2-8.1-5.78"/><path d="M394.51,207a35.14,35.14,0,0,1,.1-4.6,70.46,70.46,0,0,1-7.49,8.14c-2.64,2.5-5.27,3.81-8,3.81-4.56,0-7-1.57-7.49-4.6l-.1-2.1c0-4.33,1.82-9.59,5.56-15.76a2.26,2.26,0,0,1,2.23-1.45c1.72,0,2.63.79,2.63,2.23l-.3.66c-3.54,7.23-5.37,12.35-5.37,15.64,0,1.7.92,2.62,2.84,2.62s3.95-1.05,6.28-3A56.89,56.89,0,0,0,397,194.91l.7-1.19a17.2,17.2,0,0,1,1.22-2.23c.4-.52,1.42-.79,2.94-.79a2.28,2.28,0,0,1,1.82,2.1l-.31.79a30,30,0,0,0-3.34,13.93,11.79,11.79,0,0,0,2,6.7,6.11,6.11,0,0,0,5.36,3c6.18,0,15.69-3.28,28.55-9.72l18.12-10c.71,0,1.11.39,1.11,1.31s-.2,1.18-.5,1.18c-.11.13-1.93,1.18-5.37,3.15-19.33,11.17-33.3,16.69-41.91,16.69-8.3,0-12.65-4.33-12.95-12.87"/><path d="M453.54,222.76a24.68,24.68,0,0,1,2.33-9.59,17,17,0,0,0,1.62-6.31,7.24,7.24,0,0,0-1.42-3.81,14.86,14.86,0,0,1-2.32-7.62,9.07,9.07,0,0,1,3-7c1.93-1.84,3.85-2.89,5.57-3a2.2,2.2,0,0,1,1.72.79,3.66,3.66,0,0,1,.61,2,5.85,5.85,0,0,1-1,3,31.84,31.84,0,0,1-6,7.22,17.89,17.89,0,0,0,2,3.68,10.34,10.34,0,0,1,2.12,5.65,16.4,16.4,0,0,1-1.62,6.57,28.13,28.13,0,0,0-1.92,8.94q0,3.35,3,3.55c12.25,0,29.86-9.73,52.84-29l.4-.13c.81,0,1.22.52,1.22,1.7l-.51.79c-23,19.58-40.89,29.3-53.95,29.3-5.06,0-7.7-2.23-7.8-6.7m5.37-32.19a7.9,7.9,0,0,0-1.92,4.86v.27a28.32,28.32,0,0,0,3.64-4.08c1.21-1.71,1.82-2.76,1.82-3.41-1.11,0-2.23.78-3.54,2.36"/><path d="M513.29,213.43c-1.32-1.31-2-3.28-2-6a18.89,18.89,0,0,1,2.22-8.8c1.42-3,3.14-4.87,4.86-5.65,1.52,0,2.33.92,2.33,2.76a2.3,2.3,0,0,1-.41,1.44c-3.54,3.81-5.36,7.49-5.36,11.17a6.2,6.2,0,0,0,.71,3,2.23,2.23,0,0,0,2.23,1.32,5.05,5.05,0,0,0,4-1.84,19.34,19.34,0,0,0,2.94-4.6c-1.92-1.19-2.94-3.42-2.94-6.7,0-2.9,1.12-4.47,3.45-4.73,2.12,0,3.13,1.7,3.13,5a15.28,15.28,0,0,1-.81,4.6,13.32,13.32,0,0,0,6.89,1.84A174.87,174.87,0,0,0,564,202.66c9.32-2,15.7-3.68,19-5.13.91,0,1.31.53,1.31,1.45v.13c0,.79-2.73,2-8.1,3.42s-11.74,2.89-19.33,4.2A143.71,143.71,0,0,1,534.55,209a17.66,17.66,0,0,1-7.8-1.71c-2.12,5.39-5.06,8.14-8.9,8.14a6.24,6.24,0,0,1-4.56-2m13.06-13.53c0-1.71-.41-2.5-1.12-2.5-.3,0-.4.66-.5,2.11a4.72,4.72,0,0,0,1.21,3.54,12.27,12.27,0,0,0,.41-3.15"/><path d="M690.08,193.07c3.95-12.48,8.3-24.84,13.26-36.92a334.16,334.16,0,0,1,15.49-33c5.36-9.86,10.83-17.74,16.4-23.79s10.83-9.06,16-9.06a7.55,7.55,0,0,1,6.28,3.28c1.62,2.24,2.43,5.92,2.43,10.91a132.07,132.07,0,0,1-2.74,25.75c-1.82,9.2-4.25,18.92-7.18,29s-6.18,20.89-9.72,31.93c-5.57,17.47-10.63,34.82-15.08,51.77s-6.79,32.58-6.79,46.64A61.58,61.58,0,0,0,721,306.85c1.72,6,4,10.91,7.19,14.46a3.11,3.11,0,0,1,.71,2c0,1.57-.61,2.36-1.92,2.49a2.18,2.18,0,0,1-1.62-.78,44.23,44.23,0,0,1-6.68-15.64,83.89,83.89,0,0,1-2.33-19.71A220.35,220.35,0,0,1,723.38,236q7.9-30.15,15.79-55.58c3.14-10.38,6.08-20.1,8.71-29.3s4.66-17.6,6.18-25.62a116.31,116.31,0,0,0,2.32-21.68A19.11,19.11,0,0,0,755.07,96c-.91-2-2.23-2.89-3.85-2.89-4.76,0-9.72,2.89-15.08,8.8s-10.83,13.93-16.2,23.91a346.56,346.56,0,0,0-15.49,33.38A471.38,471.38,0,0,0,686.33,213c-4.75,17.74-7.08,31.53-7.08,41.65a1.37,1.37,0,0,1-1.52,1.58c-.91,0-1.42-.53-1.42-1.58a210.3,210.3,0,0,1,6.18-49.4c4.55-18.14,9.11-34.82,13.66-49.93q6.23-20.7,10.43-37.84c2.83-11.43,4.25-21.55,4.25-30.49,0-5.25-1.31-8-4.05-8.14-4.45,0-9.41,3.81-15,11.3s-11.24,17.34-17.11,29.43-11.54,25.36-16.9,39.55-10.23,28.25-14.58,41.91-7.89,25.89-10.42,36.53-3.85,18.13-3.85,22.6c0,1.45-.61,2.23-1.82,2.23s-1.72-.78-1.72-2.23q0-18.91,4.85-47.7c3.14-19.18,7.19-38.23,12-57s9.82-34.69,15.18-47.57c.51-1.44,1.32-2.1,2.43-2.1a4.87,4.87,0,0,1,1.12.27,1.87,1.87,0,0,1,.81,1,7.35,7.35,0,0,1,.2,1.31,3,3,0,0,1-.4,1.45q-9.87,25.21-19.14,63.85c-6.17,25.76-10.12,46.25-11.64,61.63,1.93-10.38,7.9-29.7,17.72-58.21a485.81,485.81,0,0,1,33.2-75.82c9.62-16.68,17.92-25.09,25-25.09,4.56,0,7,3.55,7.39,10.77a150.63,150.63,0,0,1-2.33,25.62c-1.62,8.81-3.74,17.87-6.27,27.07s-5.37,18.66-8.3,28C691.7,184.92,687.35,200,684.11,213c1.41-5.13,3.34-11.69,6-20"/><path d="M759.64,213.43c-1.31-1.31-2-3.28-2-6a18.9,18.9,0,0,1,2.23-8.8c1.41-3,3.13-4.87,4.85-5.65,1.52,0,2.33.92,2.33,2.76a2.36,2.36,0,0,1-.4,1.44c-3.54,3.81-5.37,7.49-5.37,11.17a6.31,6.31,0,0,0,.71,3,2.25,2.25,0,0,0,2.23,1.32,5.08,5.08,0,0,0,4-1.84,19.66,19.66,0,0,0,2.93-4.6c-1.92-1.19-2.93-3.42-2.93-6.7,0-2.9,1.11-4.47,3.44-4.73,2.12,0,3.14,1.7,3.14,5a15.6,15.6,0,0,1-.81,4.6,13.26,13.26,0,0,0,6.88,1.84,174.86,174.86,0,0,0,29.46-3.55c9.31-2,15.69-3.68,19-5.13.91,0,1.31.53,1.31,1.45v.13c0,.79-2.73,2-8.09,3.42s-11.75,2.89-19.34,4.2A143.71,143.71,0,0,1,780.9,209a17.65,17.65,0,0,1-7.79-1.71c-2.13,5.39-5.06,8.14-8.91,8.14a6.26,6.26,0,0,1-4.56-2M772.7,199.9c0-1.71-.4-2.5-1.11-2.5-.31,0-.41.66-.51,2.11a4.72,4.72,0,0,0,1.22,3.54,12.68,12.68,0,0,0,.4-3.15"/><path d="M829,222.76a24.68,24.68,0,0,1,2.33-9.59,17.1,17.1,0,0,0,1.61-6.31,7.31,7.31,0,0,0-1.41-3.81,14.78,14.78,0,0,1-2.33-7.62,9,9,0,0,1,3-7c1.92-1.84,3.84-2.89,5.56-3a2.2,2.2,0,0,1,1.72.79,3.66,3.66,0,0,1,.61,2,5.76,5.76,0,0,1-1,3,31.75,31.75,0,0,1-6,7.22,17.39,17.39,0,0,0,2,3.68,10.37,10.37,0,0,1,2.13,5.65,16.57,16.57,0,0,1-1.62,6.57,27.86,27.86,0,0,0-1.92,8.94q0,3.35,3,3.55c12.25,0,29.86-9.73,52.84-29l.41-.13c.81,0,1.21.52,1.21,1.7l-.5.79c-23,19.58-40.9,29.3-54,29.3-5.06,0-7.69-2.23-7.79-6.7m5.36-32.19a8,8,0,0,0-1.92,4.86v.27a27.74,27.74,0,0,0,3.64-4.08c1.22-1.71,1.83-2.76,1.83-3.41-1.12,0-2.23.78-3.55,2.36"/><path d="M964.47,197.93a.93.93,0,0,1,.4.52,1.44,1.44,0,0,1,.11.79l-.51.79C945.64,213.57,930.15,220.4,918,220.4c-4.25,0-7.7-1.05-10.13-3.29s-3.84-5.12-4.25-9.06c-.4.52-1.52,1.84-3.44,4.2q-5.93,7.09-9.72,7.1-5.46,0-5.77-8.28a23.25,23.25,0,0,1,2.43-9.59,34.75,34.75,0,0,1,6.18-9.2c2.53-2.63,5.06-3.94,7.79-3.94a4.77,4.77,0,0,1,4.66,2.49,12.28,12.28,0,0,1,1.42,5.79c0,.65-.11.92-.41,1a2,2,0,0,1-.81.13.5.5,0,0,1-.4-.13c-.21,0-.31-.13-.51-.4a1.33,1.33,0,0,1-.2-.79c0-2.36-1.12-3.54-3.34-3.68-1.72,0-3.65,1.19-5.67,3.55a35.12,35.12,0,0,0-5,8.15,21,21,0,0,0-2,7.75c0,2.63.61,4.07,1.83,4.34,1.51,0,3.34-1.18,5.66-3.55a89.34,89.34,0,0,0,7.49-9.2,1.74,1.74,0,0,1,1.73-1.18c1.51,0,2.22.79,2.22,2.5,0,8.27,3.44,12.35,10.33,12.35,11.54,0,26.62-6.57,45.25-19.58l.2-.26a1.67,1.67,0,0,1,.91.26"/></svg>